Coordinates
version=1
nRows=14
nColumns=40
inDegrees=yes

Units are S.I. units (second, meters, Newtons, ...)
If the header above contains a line with 'inDegrees', this indicates whether rotational values are in degrees (yes) or radians (no).

endheader
time	pelvis_tilt	pelvis_list	pelvis_rotation	pelvis_tx	pelvis_ty	pelvis_tz	hip_flexion_r	hip_adduction_r	hip_rotation_r	knee_angle_r	knee_angle_r_beta	ankle_angle_r	subtalar_angle_r	mtp_angle_r	hip_flexion_l	hip_adduction_l	hip_rotation_l	knee_angle_l	knee_angle_l_beta	ankle_angle_l	subtalar_angle_l	mtp_angle_l	lumbar_extension	lumbar_bending	lumbar_rotation	arm_flex_r	arm_add_r	arm_rot_r	elbow_flex_r	pro_sup_r	wrist_flex_r	wrist_dev_r	arm_flex_l	arm_add_l	arm_rot_l	elbow_flex_l	pro_sup_l	wrist_flex_l	wrist_dev_l
      2.57500000	    -13.05682981	      0.59312779	      5.58249866	     -0.35084228	      0.93043364	     -0.74246296	     35.70234888	      0.21627886	     -9.05599915	     41.96663637	      0.73245598	      6.24857709	      0.00000000	      0.00000000	     22.81455987	     -4.54427673	     -0.44491317	     83.76293019	      1.46193892	     -6.37140997	      0.00000000	      0.00000000	     -7.91816463	      2.90971763	     -5.91566251	     89.66262902	     -3.76281376	     27.78931655	     30.71408457	     78.26236583	      0.00000000	      0.00000000	     89.67972698	    -10.68248597	     28.30931855	     34.98304528	     79.27580408	      0.00000000	      0.00000000
      2.58000000	    -13.14525620	      0.57823647	      5.57630001	     -0.35102018	      0.92959025	     -0.74250879	     35.96665119	      0.21082554	     -9.01266234	     42.29569520	      0.73819914	      6.36106503	      0.00000000	      0.00000000	     22.87421490	     -4.52023591	     -0.37512285	     83.82608304	      1.46304115	     -6.10427531	      0.00000000	      0.00000000	     -7.84929230	      2.92634753	     -5.93222072	     89.66471303	     -3.84920131	     28.84413423	     30.98996018	     72.97620703	      0.00000000	      0.00000000	     89.69045620	    -10.72682098	     29.04388192	     35.10718875	     73.70171599	      0.00000000	      0.00000000
      2.58500000	    -13.23268783	      0.55627745	      5.56701828	     -0.35120863	      0.92894889	     -0.74244182	     36.12641678	      0.22553818	     -9.02653315	     42.39822591	      0.73998864	      6.45184902	      0.00000000	      0.00000000	     22.92307024	     -4.53490644	     -0.33072939	     83.79573976	      1.46251156	     -6.52885140	      0.00000000	      0.00000000	     -7.85014865	      2.93580352	     -5.87477417	     89.67401957	     -3.78714667	     27.67585700	     30.68321822	     77.57810331	      0.00000000	      0.00000000	     89.68950132	    -10.64665445	     28.04519185	     35.11235244	     79.36798137	      0.00000000	      0.00000000
      2.59000000	    -13.23641522	      0.52623913	      5.55207981	     -0.35141374	      0.92831813	     -0.74243630	     36.25790547	      0.24774659	     -9.02489613	     42.63725577	      0.74416050	      6.53588243	      0.00000000	      0.00000000	     22.88566323	     -4.55796194	     -0.28591638	     83.81037007	      1.46276690	     -6.48177283	      0.00000000	      0.00000000	     -7.90920923	      2.98885219	     -5.92972625	     89.67901305	     -3.71213490	     27.71495247	     30.85442869	     77.71822467	      0.00000000	      0.00000000	     89.69517872	    -10.75329926	     28.01365024	     35.22512916	     78.86966791	      0.00000000	      0.00000000
      2.59500000	    -13.31750090	      0.52375634	      5.54250734	     -0.35163954	      0.92757135	     -0.74241919	     36.46263412	      0.24158974	     -8.98716445	     42.84272978	      0.74774670	      6.63850050	      0.00000000	      0.00000000	     22.92734727	     -4.56094822	     -0.25151082	     83.84565082	      1.46338267	     -6.35178057	      0.00000000	      0.00000000	     -7.87409870	      2.98564579	     -5.92700932	     89.68321452	     -3.79949061	     28.28091110	     31.07898122	     74.11348722	      0.00000000	      0.00000000	     89.70349567	    -10.82131566	     28.55487432	     35.40671722	     75.24618616	      0.00000000	      0.00000000
      2.60000000	    -13.38084382	      0.53040681	      5.54629560	     -0.35182575	      0.92690035	     -0.74239357	     36.64294989	      0.22175785	     -8.97279936	     43.05672107	      0.75148155	      6.73309779	      0.00000000	      0.00000000	     22.96965678	     -4.54314273	     -0.21063034	     83.85657519	      1.46357334	     -6.47535476	      0.00000000	      0.00000000	     -7.88149753	      2.96374133	     -5.86446611	     89.69162641	     -3.77397458	     27.55199138	     30.89172338	     77.55783542	      0.00000000	      0.00000000	     89.70530738	    -10.65489175	     27.64781997	     35.32933663	     79.42694170	      0.00000000	      0.00000000
      2.60500000	    -13.50843127	      0.55271228	      5.52845491	     -0.35204585	      0.92612955	     -0.74236261	     36.89964828	      0.18429100	     -8.94320902	     43.28100558	      0.75539605	      6.86608022	      0.00000000	      0.00000000	     23.06000379	     -4.47089395	     -0.14329832	     83.85860389	      1.46360874	     -6.45698285	      0.00000000	      0.00000000	     -7.78188326	      2.94308932	     -5.95019426	     89.69610718	     -3.80952773	     28.81691429	     31.12729848	     71.36522156	      0.00000000	      0.00000000	     89.70954769	    -10.94665253	     28.83620590	     35.69506794	     72.90968355	      0.00000000	      0.00000000
      2.61000000	    -13.57296726	      0.54767241	      5.48831051	     -0.35227476	      0.92541223	     -0.74229879	     37.06987393	      0.21489663	     -8.87966800	     43.45149840	      0.75837171	      6.96459189	      0.00000000	      0.00000000	     23.09678716	     -4.49032370	     -0.14181646	     83.88363140	      1.46404556	     -6.64191076	      0.00000000	      0.00000000	     -7.80634732	      2.93473365	     -5.91069019	     89.69793517	     -3.64354037	     27.33226397	     30.87903650	     77.22903015	      0.00000000	      0.00000000	     89.71493570	    -10.76729577	     27.39990623	     35.50206045	     79.52139844	      0.00000000	      0.00000000
      2.61500000	    -13.62463197	      0.53468759	      5.46281541	     -0.35242225	      0.92469076	     -0.74224625	     37.24600638	      0.24194114	     -8.82518719	     43.67380401	      0.76225168	      7.08935849	      0.00000000	      0.00000000	     23.11380280	     -4.50513671	     -0.11605140	     83.91132502	      1.46452890	     -6.66053211	      0.00000000	      0.00000000	     -7.80108217	      2.94502109	     -5.94437255	     89.69695804	     -3.61328140	     27.20734051	     31.07511253	     77.43613061	      0.00000000	      0.00000000	     89.71735985	    -10.82810524	     27.29725127	     35.57744734	     79.50890950	      0.00000000	      0.00000000
      2.62000000	    -13.67059226	      0.54296734	      5.42391355	     -0.35255823	      0.92398826	     -0.74219673	     37.42615630	      0.22658920	     -8.83312433	     43.91994304	      0.76654761	      7.19765845	      0.00000000	      0.00000000	     23.13653516	     -4.53136614	     -0.15135430	     83.92729163	      1.46480757	     -6.84144519	      0.00000000	      0.00000000	     -7.81189905	      2.94167345	     -5.94463706	     89.70651434	     -3.67425908	     28.17168201	     31.30394999	     73.26207105	      0.00000000	      0.00000000	     89.72494194	    -11.00279790	     28.08177727	     35.87099851	     75.21664817	      0.00000000	      0.00000000
      2.62500000	    -13.77142089	      0.52563798	      5.43381388	     -0.35284007	      0.92326806	     -0.74213195	     37.64176952	      0.25640821	     -8.75084466	     44.09546554	      0.76961106	      7.26990300	      0.00000000	      0.00000000	     23.21542356	     -4.48479598	     -0.01045748	     83.95255256	      1.46524846	     -6.73575275	      0.00000000	      0.00000000	     -7.78522830	      2.92812722	     -5.88953205	     89.70898579	     -3.62989219	     27.13596375	     31.11256719	     77.07828947	      0.00000000	      0.00000000	     89.73200626	    -10.72835269	     26.98716976	     35.65251470	     79.35437843	      0.00000000	      0.00000000
      2.63000000	    -13.85185394	      0.53718192	      5.42108947	     -0.35300533	      0.92254392	     -0.74218521	     37.83326258	      0.23559777	     -8.71098409	     44.30495471	      0.77326733	      7.41034883	      0.00000000	      0.00000000	     23.27108420	     -4.44837971	      0.01026605	     83.96761297	      1.46551131	     -6.75373317	      0.00000000	      0.00000000	     -7.74785531	      2.91994383	     -5.92590152	     89.71289017	     -3.57437198	     26.91512606	     31.13892540	     77.25414211	      0.00000000	      0.00000000	     89.73207595	    -10.77576014	     26.87305235	     35.71783682	     79.46215970	      0.00000000	      0.00000000
      2.63500000	    -13.93850259	      0.53130440	      5.40909532	     -0.35328187	      0.92184056	     -0.74212974	     38.04723445	      0.24351695	     -8.66707596	     44.50515184	      0.77676143	      7.49057247	      0.00000000	      0.00000000	     23.35105890	     -4.41777090	      0.07749627	     83.99563188	      1.46600033	     -6.74668112	      0.00000000	      0.00000000	     -7.73344557	      2.92353715	     -5.92685918	     89.71704442	     -3.53332722	     26.79762137	     31.20482818	     77.14080724	      0.00000000	      0.00000000	     89.73576748	    -10.81625052	     26.74452574	     35.86871135	     79.52937144	      0.00000000	      0.00000000
      2.64000000	    -14.04320035	      0.54298802	      5.36036395	     -0.35345344	      0.92104301	     -0.74210940	     38.28580203	      0.25062322	     -8.58291044	     44.73836258	      0.78083173	      7.60828058	      0.00000000	      0.00000000	     23.42462242	     -4.39705502	      0.07938569	     84.02353978	      1.46648742	     -6.69828179	      0.00000000	      0.00000000	     -7.68633785	      2.90495993	     -5.89969081	     89.72077637	     -3.50412677	     26.61005672	     31.31662969	     77.30858848	      0.00000000	      0.00000000	     89.73798052	    -10.83618538	     26.63249703	     35.98465124	     79.47112262	      0.00000000	      0.00000000
